<svg xmlns="http://www.w3.org/2000/svg" viewBox="0 0 64 64" role="img" aria-label="Neptor Systems">
  <defs>
    <clipPath id="drop">
      <path d="M32 4 C32 4 52 30 52 42 A20 20 0 1 1 12 42 C12 30 32 4 32 4 Z"/>
    </clipPath>
  </defs>
  <g clip-path="url(#drop)">
    <path d="M0 0 H64 V33 Q48 27 32 33 T0 33 Z" fill="#F2C63C"/>
    <path d="M0 37 Q16 31 32 37 T64 37 V45 Q48 51 32 45 T0 45 Z" fill="#35B5CD"/>
    <path d="M0 51 Q16 45 32 51 T64 51 V60 Q48 66 32 60 T0 60 Z" fill="#35B5CD"/>
  </g>
</svg>
